<svg width="42" height="48" viewBox="0 0 42 48" fill="none" xmlns="http://www.w3.org/2000/svg">
<path d="M31.2659 27.4069C31.2158 27.2079 31.1156 26.9592 31.1156 26.7603C31.0655 25.119 30.9653 23.5274 31.3661 21.9358C31.6165 21.0902 31.9672 20.3442 32.4181 19.5981C32.9692 18.7526 32.7688 17.6584 31.9672 17.0118C31.2158 16.3652 30.1136 16.3652 29.3622 17.0118C28.6107 17.6086 28.3603 18.7029 28.8612 19.5981C29.0115 19.8965 29.2119 20.195 29.4123 20.4934C29.7129 21.14 30.0134 21.8363 30.1136 22.5326C30.3641 23.9253 30.2639 25.3179 30.1637 26.7106C29.9633 27.5064 29.7129 28.3022 29.4123 29.0482C29.1618 29.6451 29.3622 30.2916 29.9133 30.6398C30.3641 30.988 31.0154 30.9382 31.5164 30.5901C32.0173 30.1922 32.1676 29.5953 31.9171 28.9985C31.6165 28.4514 31.4162 27.954 31.2659 27.4069Z" fill="white"/>
<path d="M21.8476 31.933C21.8476 31.8335 21.7975 31.7838 21.7975 31.6843C21.7474 30.043 21.6473 28.4016 22.4989 26.9095C22.7995 26.4619 23.1001 26.0142 23.4507 25.6163C23.9016 25.119 24.102 24.4724 24.102 23.8258C24.102 22.4332 22.9498 21.2395 21.5471 21.1897C20.0943 21.14 18.8418 22.2342 18.6915 23.6766C18.5913 24.4724 18.8418 25.1687 19.3929 25.7656C20.1944 26.7106 20.7455 27.755 20.9459 28.9985C21.0461 29.7943 20.9459 30.5901 20.996 31.3859C20.8958 32.2314 20.6453 33.0272 20.1944 33.7733C19.8939 34.2706 19.8438 34.768 20.1443 35.2654C20.6954 36.2104 20.996 37.2051 20.996 38.2993C20.996 38.5978 20.996 38.8962 20.996 39.1946C20.996 40.5375 21.0962 41.9302 20.6453 43.2731C20.3948 43.7704 20.0943 44.2678 19.7937 44.7652C19.2426 45.5113 19.2927 46.5557 19.8438 47.2521C20.4449 47.9981 21.4469 48.1971 22.2985 47.7992C23.1502 47.4013 23.5509 46.5557 23.4006 45.6107C23.4006 45.2626 23.2504 45.0139 23.05 44.7652C22.2484 43.671 21.8476 42.4275 21.8476 41.0846C21.8476 40.2888 21.8476 39.493 21.8476 38.6972C21.7975 37.4538 22.0981 36.3099 22.7494 35.2654C22.9999 34.8675 22.9999 34.4198 22.7494 34.0219C22.3486 33.2261 22.048 32.5796 21.8476 31.933Z" fill="white"/>
<path d="M2.21 20.195C2.21 21.2395 1.90941 22.2342 1.35835 23.1295C1.30825 23.2289 1.25816 23.3284 1.20806 23.4279C1.00767 24.0247 1.25816 24.7211 1.80922 25.0692C2.36029 25.4174 3.06164 25.3677 3.56261 24.9698C4.01348 24.5719 4.26397 23.8258 3.96339 23.3284C3.51251 22.5326 3.21193 21.6871 3.06164 20.7421C3.06164 20.6426 3.06164 20.5431 3.06164 20.4437C3.06164 19.7971 3.06164 19.1505 3.06164 18.5039C3.06164 17.5092 3.46242 16.6139 3.96339 15.7684C4.16377 15.4699 4.41426 15.1715 4.61464 14.9228C5.11561 14.2762 5.316 13.5302 5.11561 12.6846C4.86513 11.6402 3.91329 10.8444 2.86125 10.7946C1.70903 10.7449 0.656993 11.3417 0.306315 12.3365C0.206122 12.436 0.206122 12.5354 0.156025 12.6349C-0.0443623 13.5302 0.156025 14.326 0.70709 15.0223C1.40845 15.8678 1.85932 16.8128 2.1098 17.9071C2.26009 18.6034 2.1599 19.3992 2.21 20.195Z" fill="white"/>
<path d="M39.4814 29.4461C39.4313 29.844 39.4313 30.2419 39.3311 30.6895C39.1307 31.6843 38.6799 32.5796 38.1288 33.4251C37.5777 34.2706 37.7781 35.4146 38.5797 36.0612C39.3311 36.7077 40.4834 36.658 41.2348 36.0612C41.9863 35.4146 42.1867 34.2706 41.6356 33.4251C40.8841 32.3309 40.3832 31.1372 40.1828 29.844C40.1828 29.6451 40.1828 29.4461 40.1828 29.1974C40.1828 28.3021 40.1828 27.4069 40.3832 26.5613C40.5836 25.865 40.834 25.2184 41.1847 24.5718C41.4853 23.975 41.4352 23.4279 41.0344 22.9305C40.6337 22.4331 40.0826 22.2839 39.4814 22.4331C38.8302 22.5824 38.4795 23.03 38.3793 23.6766C38.2791 24.0745 38.4294 24.4226 38.5797 24.7708C39.1307 25.9645 39.4814 27.2577 39.4313 28.6006C39.4313 28.8493 39.4814 29.1477 39.4814 29.4461Z" fill="white"/>
<path d="M11.5275 22.9803C11.5275 23.8258 11.5275 24.6216 11.5776 25.4671C11.5776 26.6608 11.3772 27.8048 10.8261 28.8493C10.5757 29.3466 10.6258 29.844 10.9764 30.2916C11.3271 30.6895 11.778 30.8885 12.3291 30.7393C12.8801 30.5901 13.2308 30.2419 13.331 29.6948C13.3811 29.3964 13.331 29.098 13.1807 28.7995C12.6296 27.7053 12.3792 26.5116 12.4292 25.3179C12.4793 24.7211 12.4292 24.0745 12.4292 23.4776C12.4292 23.2787 12.4793 23.0797 12.4793 22.8808C12.6296 21.6871 13.0805 20.6426 13.7318 19.6479C14.2828 18.7526 14.1325 17.7081 13.3811 17.0118C12.6797 16.3652 11.5275 16.3155 10.7761 16.9123C9.92441 17.5589 9.67392 18.6531 10.225 19.5484C10.8762 20.6426 11.3271 21.7368 11.5275 22.9803Z" fill="white"/>
<path d="M41.9364 13.2815C41.9364 12.0878 41.1348 11.2423 39.9325 11.1925C39.4315 11.1925 38.9306 11.1428 38.4296 11.0433C35.7745 10.5459 33.6203 9.40198 32.5182 6.81564C31.917 5.42299 30.1135 5.12457 29.1116 6.26853C28.5605 6.91511 28.4102 7.66117 28.7609 8.45697C29.1116 9.25277 29.7628 9.65066 30.6646 9.65066C31.3659 9.65066 32.0673 9.60093 32.7687 9.75014C34.522 10.148 35.8747 11.1925 37.077 12.4857C37.5279 12.9831 37.8284 13.5799 38.129 14.127C38.5799 15.0223 39.5317 15.4202 40.4335 15.2212C41.2851 15.0223 41.9364 14.2265 41.9364 13.2815Z" fill="white"/>
<path d="M21.346 5.32352C22.7989 5.32352 24.0513 4.12982 24.0012 2.63771C23.9511 1.04611 22.5985 -0.0481087 21.296 0.00162857C19.8431 0.0513659 18.6909 1.19532 18.6909 2.63771C18.6909 4.12982 19.8932 5.32352 21.346 5.32352Z" fill="white"/>
<path d="M21.3469 14.6741C22.1484 14.6741 22.8498 14.0275 22.7997 13.2317C22.7997 12.4359 22.1484 11.7894 21.3469 11.7894C20.5453 11.7894 19.894 12.4359 19.894 13.2317C19.894 14.0773 20.5453 14.6741 21.3469 14.6741Z" fill="white"/>
<path d="M11.9787 6.21879C11.1771 6.21879 10.5259 6.86538 10.5259 7.66117C10.5259 8.45697 11.2272 9.10355 11.9787 9.10355C12.7802 9.10355 13.4315 8.40723 13.4315 7.61144C13.4315 6.81564 12.7802 6.21879 11.9787 6.21879Z" fill="white"/>
<path d="M30.614 41.0349C31.3655 41.0349 31.9667 40.4381 31.9667 39.692C31.9667 38.9459 31.3154 38.3491 30.614 38.3491C29.9127 38.3491 29.3115 38.9957 29.3115 39.692C29.3115 40.4381 29.8626 41.0349 30.614 41.0349Z" fill="white"/>
<path d="M41.9363 13.2815C41.9363 14.2265 41.3351 15.0223 40.4334 15.2212C39.5316 15.4699 38.5798 15.0223 38.1289 14.127C37.8283 13.5302 37.5277 12.9831 37.0769 12.4857C35.8745 11.1925 34.5219 10.1978 32.7685 9.75014C32.0672 9.60093 31.3658 9.65066 30.6645 9.65066C29.7627 9.65066 29.1616 9.25277 28.7608 8.45697C28.4101 7.66117 28.5103 6.91511 29.1115 6.26853C30.0633 5.12457 31.8668 5.42299 32.5181 6.81564C33.6703 9.40198 35.8244 10.5459 38.4295 11.0433C38.9304 11.1428 39.4314 11.1428 39.9324 11.1925C41.1347 11.2423 41.9363 12.0878 41.9363 13.2815Z" fill="#397C95"/>
<path d="M21.347 5.32352C19.8942 5.32352 18.6418 4.12982 18.6919 2.63771C18.6919 1.19532 19.8441 0.0513659 21.2969 0.00162857C22.6495 -0.0481087 24.0021 1.04611 24.0021 2.63771C24.0522 4.08009 22.8499 5.32352 21.347 5.32352Z" fill="#347F97"/>
<path d="M18.6421 23.6268C18.7423 22.1845 19.9947 21.0902 21.4976 21.14C22.9003 21.1897 24.0525 22.3834 24.0525 23.7761C24.0525 24.4724 23.8522 25.0692 23.4013 25.5666C23.0506 25.9645 22.75 26.4121 22.4494 26.8598C22.3493 26.81 22.2491 26.7603 22.1489 26.6608C21.3974 25.9645 20.6961 25.3179 19.9446 24.6216C19.5939 24.3232 19.2433 23.975 18.8926 23.6268C18.8425 23.6766 18.7924 23.6268 18.6421 23.6268Z" fill="#3098A5"/>
<path d="M11.5273 22.9803C11.3269 21.7368 10.826 20.6426 10.1747 19.5484C9.62363 18.6531 9.87411 17.5589 10.7258 16.9123C11.4772 16.3155 12.5793 16.3652 13.3308 17.0118C14.1323 17.7081 14.2826 18.8023 13.6815 19.6479C13.0302 20.6426 12.5793 21.6871 12.4291 22.8808C12.4291 23.0797 12.379 23.2787 12.379 23.4776C12.2287 23.4776 12.1285 23.3782 12.0283 23.3284C11.9281 23.1792 11.7277 23.03 11.5273 22.9803Z" fill="#309EA8"/>
<path d="M40.2331 29.844C40.4335 31.1372 40.9344 32.3309 41.6859 33.4251C42.2369 34.2706 42.0365 35.3648 41.2851 36.0612C40.5336 36.7077 39.4315 36.7077 38.63 36.0612C37.8284 35.4146 37.628 34.2706 38.1791 33.4251C38.7302 32.5796 39.181 31.6843 39.3814 30.6895C39.4816 30.2916 39.4816 29.8937 39.5317 29.4461C39.7822 29.4958 39.8824 29.844 40.2331 29.844Z" fill="#3391A1"/>
<path d="M29.3625 20.4437C29.1621 20.1452 29.0118 19.8468 28.8114 19.5484C28.3104 18.6531 28.5609 17.6086 29.3124 16.962C30.0638 16.3652 31.166 16.3652 31.9174 16.962C32.719 17.6086 32.9194 18.7029 32.3683 19.5484C31.9174 20.2944 31.5167 21.0405 31.3163 21.886C31.2161 21.886 31.1159 21.8363 31.0157 21.7866C30.665 21.4384 30.2642 21.0902 29.9136 20.7421C29.7633 20.6426 29.613 20.4437 29.3625 20.4437Z" fill="#31899D"/>
<path d="M0.255859 12.2867C0.606537 11.292 1.65857 10.6951 2.8108 10.7449C3.86283 10.7946 4.81467 11.5904 5.06516 12.6349C5.26555 13.4804 5.06516 14.2265 4.56419 14.8731C4.3638 15.1715 4.11332 15.4699 3.91293 15.7186C3.56225 15.2212 3.11138 14.8731 2.66051 14.4752C1.90906 13.7291 1.05741 12.9831 0.255859 12.2867Z" fill="#309EA8"/>
<path d="M23.3012 45.4615C23.4514 46.4065 23.0507 47.2521 22.199 47.65C21.3474 48.0479 20.3454 47.7992 19.7443 47.1029C19.1431 46.4065 19.093 45.362 19.6942 44.616C20.0449 44.1684 20.3454 43.671 20.5458 43.1239C20.646 43.1239 20.6961 43.1736 20.7963 43.2731C21.2973 43.7705 21.7983 44.2181 22.2992 44.6657C22.6499 44.9641 22.9004 45.3123 23.3012 45.4615Z" fill="#21B4B2"/>
<path d="M0.255759 12.2867C1.05731 13.0328 1.90895 13.7789 2.66041 14.5249C3.06118 14.9228 3.56215 15.271 3.91283 15.7684C3.41186 16.6139 3.06118 17.5092 3.01108 18.5039C3.01108 19.1505 3.01108 19.7971 3.01108 20.4437C3.01108 20.5431 3.01108 20.6426 3.01108 20.7421C2.8107 20.7421 2.7105 20.5431 2.61031 20.4437C2.46002 20.3442 2.40992 20.1452 2.15944 20.195C2.10934 19.4489 2.20953 18.6531 2.05924 17.9071C1.85886 16.8128 1.35789 15.8678 0.656533 15.0223C0.0553711 14.326 -0.145016 13.5302 0.105468 12.6349C0.155565 12.4857 0.205662 12.3365 0.255759 12.2867Z" fill="#2BA5AB"/>
<path d="M40.2339 29.844C39.9333 29.8937 39.783 29.4958 39.4824 29.4958C39.4824 29.1974 39.4323 28.899 39.4824 28.6006C39.5325 27.2577 39.2319 25.9645 38.6308 24.7708C38.4805 24.4226 38.3302 24.0745 38.4304 23.6766C38.5306 23.03 38.9314 22.6321 39.5325 22.4331C40.1337 22.2839 40.6848 22.4331 41.0855 22.9305C41.4863 23.4279 41.5364 24.0247 41.2358 24.5718C40.8851 25.2184 40.5846 25.865 40.4343 26.5613C40.1838 27.4566 40.2339 28.3021 40.2339 29.1974C40.1838 29.3964 40.1838 29.5953 40.2339 29.844Z" fill="#31899D"/>
<path d="M20.9462 38.1999C20.9462 37.1056 20.6456 36.1109 20.0945 35.1659C19.7939 34.6685 19.844 34.1711 20.1446 33.6738C20.5955 32.9277 20.846 32.1319 20.9462 31.2864C21.0965 31.3361 21.1967 31.4356 21.3469 31.4853C21.5473 31.6345 21.5974 31.8832 21.898 31.8832C22.0984 32.5796 22.399 33.1764 22.6996 33.823C22.9 34.2209 22.9 34.6685 22.6996 35.0664C22.0984 36.1109 21.7477 37.2549 21.7978 38.4983C21.6475 38.4983 21.5473 38.4983 21.397 38.3491C21.2468 38.2993 21.1466 38.1999 20.9462 38.1999Z" fill="#2BA5AB"/>
<path d="M11.5281 22.9803C11.7285 23.03 11.8787 23.1792 12.029 23.3284C12.1292 23.4279 12.2294 23.5274 12.3797 23.4776C12.3797 24.0745 12.4298 24.7211 12.3797 25.3179C12.3296 26.5614 12.5801 27.7053 13.1312 28.7995C13.2815 29.098 13.3315 29.3466 13.2815 29.6948C13.1813 30.2419 12.8306 30.6398 12.2795 30.7393C11.7285 30.8885 11.2776 30.6895 10.9269 30.2916C10.5762 29.844 10.476 29.3466 10.7766 28.8493C11.3778 27.8048 11.5782 26.6608 11.5281 25.4671C11.5281 24.6713 11.5281 23.8258 11.5281 22.9803Z" fill="#2FA8AD"/>
<path d="M21.8478 31.933C21.5973 31.8832 21.4971 31.6346 21.2967 31.5351C21.1965 31.4356 21.0462 31.3361 20.8959 31.3361C20.8458 30.5403 20.946 29.7445 20.8458 28.9487C20.6955 27.7053 20.1445 26.6608 19.2928 25.7158C18.7919 25.119 18.4913 24.4226 18.5915 23.6269C18.6917 23.6269 18.7919 23.6766 18.892 23.7263C19.2427 24.0745 19.5934 24.3729 19.9441 24.7211C20.6955 25.3677 21.3969 26.064 22.1483 26.7603C22.2485 26.8598 22.3487 26.9095 22.4489 26.9592C21.5973 28.4514 21.6975 30.0927 21.7476 31.734C21.7977 31.7838 21.8478 31.8335 21.8478 31.933Z" fill="#309EA8"/>
<path d="M2.20964 20.195C2.41003 20.195 2.51022 20.3442 2.66051 20.4437C2.8108 20.5431 2.8609 20.7421 3.06129 20.7421C3.21158 21.6374 3.51216 22.4829 3.96303 23.3284C4.26362 23.8755 4.06323 24.5719 3.56226 24.9698C3.06129 25.3677 2.35993 25.4174 1.80887 25.0692C1.2578 24.7211 1.00732 24.0247 1.2077 23.4279C1.2578 23.3284 1.3079 23.2289 1.35799 23.1295C1.90906 22.1845 2.20964 21.2395 2.20964 20.195Z" fill="#2DAFB1"/>
<path d="M31.2656 27.4069C31.4159 27.9043 31.6163 28.4016 31.8668 28.899C32.1173 29.4958 31.967 30.0927 31.466 30.4906C31.0151 30.8388 30.3639 30.8885 29.8629 30.5403C29.3619 30.1922 29.1115 29.5456 29.3619 28.9487C29.6625 28.2027 29.913 27.4069 30.1134 26.6111C30.414 26.6608 30.5142 26.9095 30.7145 27.0587C30.8648 27.2577 31.0151 27.4069 31.2656 27.4069Z" fill="#3098A5"/>
<path d="M20.9454 38.1999C21.1458 38.1999 21.246 38.2994 21.3963 38.3988C21.4965 38.4983 21.6468 38.548 21.7971 38.548C21.7971 39.3438 21.7971 40.1396 21.7971 40.9354C21.8471 42.2783 22.1978 43.5218 22.9994 44.616C23.1998 44.8647 23.3501 45.1631 23.3501 45.4615C22.8992 45.3123 22.6487 44.9642 22.3481 44.6657C21.8471 44.2181 21.3462 43.7207 20.8452 43.2731C20.7951 43.2233 20.6949 43.1239 20.5947 43.1239C21.0957 41.781 20.9454 40.4381 20.9454 39.0454C20.9454 38.7967 20.9454 38.4983 20.9454 38.1999Z" fill="#2DAFB1"/>
<path d="M21.3469 14.6741C20.5453 14.6741 19.894 14.0275 19.894 13.2317C19.894 12.4359 20.5453 11.7894 21.3469 11.7894C22.1484 11.7894 22.7997 12.4359 22.7997 13.2317C22.7997 14.0275 22.1484 14.6741 21.3469 14.6741Z" fill="#3391A1"/>
<path d="M11.9787 6.21879C12.7802 6.21879 13.4315 6.86538 13.4315 7.61144C13.4315 8.40723 12.7802 9.10355 11.9787 9.10355C11.1771 9.10355 10.5259 8.45697 10.5259 7.66117C10.5259 6.86538 11.1771 6.21879 11.9787 6.21879Z" fill="#3391A1"/>
<path d="M31.266 27.4069C31.0155 27.4069 30.9153 27.2577 30.7149 27.1085C30.5145 26.9592 30.4143 26.6608 30.1138 26.6608C30.264 25.2682 30.3141 23.8755 30.0637 22.4829C29.9635 21.7866 29.6629 21.0902 29.3623 20.4437C29.6128 20.4437 29.7631 20.5929 29.9134 20.7918C30.264 21.14 30.6648 21.4881 31.0155 21.8363C31.1157 21.9358 31.1658 21.9855 31.3161 21.9358C30.9153 23.5274 31.0155 25.1687 31.0656 26.7603C31.1157 27.009 31.2159 27.2079 31.266 27.4069Z" fill="#3391A1"/>
<path d="M30.6148 41.0349C29.8634 41.0349 29.2622 40.4878 29.2622 39.7417C29.2622 38.9957 29.8634 38.3988 30.5647 38.3988C31.3162 38.3988 31.9173 38.9957 31.9173 39.7417C31.9674 40.4381 31.3663 41.0349 30.6148 41.0349Z" fill="#2BA5AB"/>
</svg>
